<mxfile host="app.diagrams.net" modified="2023-11-04T00:31:12.677Z" agent="Mozilla/5.0 (Windows NT 10.0; Win64; x64) AppleWebKit/537.36 (KHTML, like Gecko) Chrome/118.0.0.0 Safari/537.36" etag="XF-98nyvY0uHfcDKmPSS" version="22.0.8" type="device">
  <diagram name="Page-1" id="D0TiLPmuBx9UaAavajTB">
    <mxGraphModel dx="1050" dy="581" grid="1" gridSize="10" guides="1" tooltips="1" connect="1" arrows="1" fold="1" page="1" pageScale="1" pageWidth="850" pageHeight="1100" math="0" shadow="0">
      <root>
        <mxCell id="0" />
        <mxCell id="1" parent="0" />
        <mxCell id="A6XOgBezAlWjBPP-sTF6-5" value="Pet" style="swimlane;fontStyle=1;align=center;verticalAlign=top;childLayout=stackLayout;horizontal=1;startSize=26;horizontalStack=0;resizeParent=1;resizeParentMax=0;resizeLast=0;collapsible=1;marginBottom=0;whiteSpace=wrap;html=1;" parent="1" vertex="1">
          <mxGeometry x="340" y="260" width="220" height="270" as="geometry" />
        </mxCell>
        <mxCell id="A6XOgBezAlWjBPP-sTF6-6" value="__name&lt;br&gt;__animal_type&lt;br&gt;__age&lt;br&gt;__image" style="text;strokeColor=none;fillColor=none;align=left;verticalAlign=top;spacingLeft=4;spacingRight=4;overflow=hidden;rotatable=0;points=[[0,0.5],[1,0.5]];portConstraint=eastwest;whiteSpace=wrap;html=1;" parent="A6XOgBezAlWjBPP-sTF6-5" vertex="1">
          <mxGeometry y="26" width="220" height="84" as="geometry" />
        </mxCell>
        <mxCell id="A6XOgBezAlWjBPP-sTF6-7" value="" style="line;strokeWidth=1;fillColor=none;align=left;verticalAlign=middle;spacingTop=-1;spacingLeft=3;spacingRight=3;rotatable=0;labelPosition=right;points=[];portConstraint=eastwest;strokeColor=inherit;" parent="A6XOgBezAlWjBPP-sTF6-5" vertex="1">
          <mxGeometry y="110" width="220" height="8" as="geometry" />
        </mxCell>
        <mxCell id="A6XOgBezAlWjBPP-sTF6-8" value="__init__(name, animal_type, age)&lt;br&gt;set_name(name)&lt;br&gt;set_animal_type(animal_type)&lt;br&gt;set_age(age)&lt;br&gt;set_image(image)&lt;br&gt;get_name()&lt;br&gt;get_animal_type()&lt;br&gt;get_age()&lt;br&gt;get_image()" style="text;strokeColor=none;fillColor=none;align=left;verticalAlign=top;spacingLeft=4;spacingRight=4;overflow=hidden;rotatable=0;points=[[0,0.5],[1,0.5]];portConstraint=eastwest;whiteSpace=wrap;html=1;" parent="A6XOgBezAlWjBPP-sTF6-5" vertex="1">
          <mxGeometry y="118" width="220" height="152" as="geometry" />
        </mxCell>
      </root>
    </mxGraphModel>
  </diagram>
</mxfile>
